<?xml version="1.0" encoding="utf-8"?>
<!-- Generator: Adobe Illustrator 19.1.0, SVG Export Plug-In . SVG Version: 6.00 Build 0)  -->
<svg version="1.1" id="Layer_1" xmlns="http://www.w3.org/2000/svg" xmlns:xlink="http://www.w3.org/1999/xlink" x="0px" y="0px"
	 viewBox="0 0 114 114" style="enable-background:new 0 0 114 114;" xml:space="preserve">
<style type="text/css">
	.st0{opacity:0;fill:#F0F2F3;}
	.st1{opacity:0;fill:#FFFFFF;}
	.st2{display:none;}
	.st3{display:inline;fill:none;stroke:#35A77C;stroke-width:2.2;stroke-miterlimit:10;}
	.st4{display:inline;fill:none;stroke:#35A77C;stroke-width:1.7875;stroke-miterlimit:10;}
	.st5{display:inline;fill:none;stroke:#35A77C;stroke-width:1.375;stroke-miterlimit:10;}
	.st6{display:inline;fill:none;stroke:#35A77C;stroke-width:0.9625;stroke-miterlimit:10;}
	.st7{display:inline;fill:none;stroke:#35A77C;stroke-width:0.55;stroke-miterlimit:10;}
	.st8{display:inline;}
	.st9{fill:none;stroke:#35A77C;stroke-width:2.2;stroke-miterlimit:10;}
	.st10{fill:none;stroke:#35A77C;stroke-width:1.7875;stroke-miterlimit:10;}
	.st11{fill:none;stroke:#35A77C;stroke-width:1.375;stroke-miterlimit:10;}
	.st12{fill:none;stroke:#35A77C;stroke-width:0.9625;stroke-miterlimit:10;}
	.st13{fill:none;stroke:#35A77C;stroke-width:0.55;stroke-miterlimit:10;}
	.st14{display:inline;fill:none;stroke:#35A77C;stroke-width:1.65;stroke-miterlimit:10;}
	.st15{display:inline;fill:none;stroke:#35A77C;stroke-width:1.1;stroke-miterlimit:10;}
	.st16{fill:none;stroke:#35A77C;stroke-width:3.278;stroke-miterlimit:10;}
	.st17{fill:none;stroke:#35A77C;stroke-width:2.6634;stroke-miterlimit:10;}
	.st18{fill:none;stroke:#35A77C;stroke-width:2.0487;stroke-miterlimit:10;}
	.st19{fill:none;stroke:#35A77C;stroke-width:1.4341;stroke-miterlimit:10;}
	.st20{fill:none;stroke:#35A77C;stroke-width:0.8195;stroke-miterlimit:10;}
	.st21{fill:none;stroke:#35A77C;stroke-width:1.65;stroke-miterlimit:10;}
	.st22{fill:none;stroke:#35A77C;stroke-width:1.1;stroke-miterlimit:10;}
	.st23{fill:none;stroke:#35A77C;stroke-width:2.4585;stroke-miterlimit:10;}
	.st24{fill:none;stroke:#35A77C;stroke-width:1.639;stroke-miterlimit:10;}
	.st25{fill:#FFFFFF;}
</style>
<rect x="0" y="0" class="st1" width="114" height="114"/>
<g>
	<polygon class="st9" points="101.1,94.8 57,94.8 12.9,94.8 23.9,75.5 34.9,56.1 57,17.5 79.1,56.1 90.1,75.5 	"/>
	<path class="st21" d="M56.2,31.4c0.2-0.6,6.4,8.9,6.5,9.5v0c0.2,1,9.9,18.3,10.6,19l9.1,14.9l2.2,3.7C85,78.9,90,89.2,89.4,89
		L80,88.7c-0.7-0.3-22.2-0.3-23-0.1l-32.4,0.7c-0.6,0.1,3.7-8.8,4.1-9.2h0c0.2-0.2,3.1-5.1,3.3-5.3c0.5-0.6,8.2-14.2,8.5-14.9
		L56.2,31.4z"/>
	<path class="st22" d="M55.4,45.2c0.4-1.1,4.8,3.7,4.9,4.9v0c0.3,2,5.8,12,7.1,13.5l7.2,10.4l1.6,2.4c0.8,0.9,2.6,7.1,1.5,6.7
		l-6-0.6C70.3,82,58.4,82,56.9,82.3l-20.6,1.4c-1.2,0.3,0.4-5.3,1.3-6.1l0,0c0.4-0.4,2.2-3.2,2.5-3.6c1-1.2,5.5-9,6-10.5L55.4,45.2z
		"/>
	<path class="st13" d="M66.1,77.3l-2.5-0.9c-2.1-0.8-4.5-0.9-6.7-0.4l-8.8,2c-1.8,0.4-2.9-1.8-1.6-3l0,0c2.4-2.2,4.2-4.9,5.3-7.9
		l2.9-8.1c0.6-1.7,3.1-1.5,3.4,0.3l0,0c0.5,2.9,1.7,5.7,3.7,8l6.2,7.2C69.2,75.9,67.8,77.9,66.1,77.3z"/>
</g>
</svg>
