<?xml version="1.0" encoding="utf-8"?>
<!-- Generator: Adobe Illustrator 19.1.0, SVG Export Plug-In . SVG Version: 6.00 Build 0)  -->
<svg version="1.1" id="Layer_1" xmlns="http://www.w3.org/2000/svg" xmlns:xlink="http://www.w3.org/1999/xlink" x="0px" y="0px"
	 viewBox="0 0 114 114" style="enable-background:new 0 0 114 114;" xml:space="preserve">
<style type="text/css">
	.st0{opacity:0;fill:#F0F2F3;}
	.st1{opacity:0;fill:#FFFFFF;}
	.st2{display:none;}
	.st3{display:inline;fill:none;stroke:#35A77C;stroke-width:2.2;stroke-miterlimit:10;}
	.st4{display:inline;fill:none;stroke:#35A77C;stroke-width:1.7875;stroke-miterlimit:10;}
	.st5{display:inline;fill:none;stroke:#35A77C;stroke-width:1.375;stroke-miterlimit:10;}
	.st6{display:inline;fill:none;stroke:#35A77C;stroke-width:0.9625;stroke-miterlimit:10;}
	.st7{display:inline;fill:none;stroke:#35A77C;stroke-width:0.55;stroke-miterlimit:10;}
	.st8{display:inline;}
	.st9{fill:none;stroke:#35A77C;stroke-width:2.2;stroke-miterlimit:10;}
	.st10{fill:none;stroke:#35A77C;stroke-width:1.7875;stroke-miterlimit:10;}
	.st11{fill:none;stroke:#35A77C;stroke-width:1.375;stroke-miterlimit:10;}
	.st12{fill:none;stroke:#35A77C;stroke-width:0.9625;stroke-miterlimit:10;}
	.st13{fill:none;stroke:#35A77C;stroke-width:0.55;stroke-miterlimit:10;}
	.st14{display:inline;fill:none;stroke:#35A77C;stroke-width:1.65;stroke-miterlimit:10;}
	.st15{display:inline;fill:none;stroke:#35A77C;stroke-width:1.1;stroke-miterlimit:10;}
	.st16{fill:none;stroke:#35A77C;stroke-width:3.278;stroke-miterlimit:10;}
	.st17{fill:none;stroke:#35A77C;stroke-width:2.6634;stroke-miterlimit:10;}
	.st18{fill:none;stroke:#35A77C;stroke-width:2.0487;stroke-miterlimit:10;}
	.st19{fill:none;stroke:#35A77C;stroke-width:1.4341;stroke-miterlimit:10;}
	.st20{fill:none;stroke:#35A77C;stroke-width:0.8195;stroke-miterlimit:10;}
	.st21{fill:none;stroke:#35A77C;stroke-width:1.65;stroke-miterlimit:10;}
	.st22{fill:none;stroke:#35A77C;stroke-width:1.1;stroke-miterlimit:10;}
	.st23{fill:none;stroke:#35A77C;stroke-width:2.4585;stroke-miterlimit:10;}
	.st24{fill:none;stroke:#35A77C;stroke-width:1.639;stroke-miterlimit:10;}
	.st25{fill:#FFFFFF;}
</style>
<rect x="0" y="0" class="st1" width="114" height="114"/>
<g>
	<g>
		<polygon class="st9" points="95.6,94.8 57,94.8 18.4,94.8 18.4,56.1 18.4,17.5 57,17.5 95.6,17.5 95.6,56.1 		"/>
		<path class="st10" d="M57.9,24.9c0.2,0.1,7.8,0,8-0.1v0c0.7-0.4,23.1,0.3,22.9,1l-0.5,30.6c-0.1,0.2,0,4.8,0,5l0.4,10.8
			c0.3,0.6-0.3,16.2-1,16.1L57.4,88c-0.5-0.1-19-0.1-19.5,0l-11.7,0.2c-0.7,0.1-1-17.3-0.7-17.9L26,56.2c0.1-0.2,0.1-8.9,0-9.1v0
			c-0.3-0.6-0.1-21.9,0.4-22.3c0.3-0.2,14.1-0.4,14.5-0.2L57.9,24.9z"/>
		<path class="st11" d="M58.7,32.3c0.4,0.1,5.8,0.1,6.2-0.2l0,0c1.4-0.8,17.4,0.5,17,2L81,56.7c-0.1,0.4-0.1,3.7,0.1,4.1l0.9,8.6
			c0.5,1.3-0.6,12.5-1.9,12.3l-22-0.5c-1-0.2-14-0.2-14.9,0l-8.9,0.3c-1.4,0.3-2-12.6-1.5-13.9l0.9-11.5c0.2-0.5,0.2-6.5-0.1-7l0,0
			c-0.6-1.3-0.2-16.4,0.8-17.1c0.6-0.5,10.4-0.7,11.3-0.5L58.7,32.3z"/>
		<path class="st12" d="M59.6,39.7c0.7,0.2,3.8,0.1,4.4-0.2l0,0c2.1-1.1,11.7,0.8,11,3L73.6,57c-0.2,0.6-0.1,2.6,0.1,3.2l1.3,6.4
			c0.8,1.9-0.9,8.9-2.9,8.5l-13.7-0.7c-1.4-0.3-8.9-0.2-10.3,0.1l-6,0.5c-2.1,0.4-2.9-7.9-2.2-9.9l1.3-8.9c0.3-0.7,0.2-4.2-0.1-4.9
			l0,0c-0.9-1.9-0.2-10.8,1.2-11.9c0.9-0.7,6.7-1.1,8-0.7L59.6,39.7z"/>
		<path class="st13" d="M64.2,68.5l-5.5-1c-1.9-0.3-3.9-0.3-5.8,0.1l-3.2,0.7c-2.7,0.6-3.9-3.2-2.9-5.8l1.8-6.3
			c0.4-0.9,0.3-1.9-0.1-2.8l0,0c-2-4.2,1.8-8.9,6.4-7.7l5.4,1.4c0.9,0.2,1.8,0.1,2.6-0.3l0,0c2.8-1.5,6,1,5.1,4.1l-1.8,6.4
			c-0.2,0.8-0.2,1.6,0.1,2.3l1.7,4.2C69.2,66.3,67,69,64.2,68.5z"/>
	</g>
</g>
</svg>
