<?xml version="1.0" encoding="utf-8"?>
<!-- Generator: Adobe Illustrator 19.1.0, SVG Export Plug-In . SVG Version: 6.00 Build 0)  -->
<svg version="1.1" id="Layer_1" xmlns="http://www.w3.org/2000/svg" xmlns:xlink="http://www.w3.org/1999/xlink" x="0px" y="0px"
	 viewBox="0 0 114 114" style="enable-background:new 0 0 114 114;" xml:space="preserve">
<style type="text/css">
	.st0{opacity:0;fill:#F0F2F3;}
	.st1{opacity:0;fill:#FFFFFF;}
	.st2{display:none;}
	.st3{display:inline;fill:none;stroke:#35A77C;stroke-width:2.2;stroke-miterlimit:10;}
	.st4{display:inline;fill:none;stroke:#35A77C;stroke-width:1.7875;stroke-miterlimit:10;}
	.st5{display:inline;fill:none;stroke:#35A77C;stroke-width:1.375;stroke-miterlimit:10;}
	.st6{display:inline;fill:none;stroke:#35A77C;stroke-width:0.9625;stroke-miterlimit:10;}
	.st7{display:inline;fill:none;stroke:#35A77C;stroke-width:0.55;stroke-miterlimit:10;}
	.st8{display:inline;}
	.st9{fill:none;stroke:#35A77C;stroke-width:2.2;stroke-miterlimit:10;}
	.st10{fill:none;stroke:#35A77C;stroke-width:1.7875;stroke-miterlimit:10;}
	.st11{fill:none;stroke:#35A77C;stroke-width:1.375;stroke-miterlimit:10;}
	.st12{fill:none;stroke:#35A77C;stroke-width:0.9625;stroke-miterlimit:10;}
	.st13{fill:none;stroke:#35A77C;stroke-width:0.55;stroke-miterlimit:10;}
	.st14{display:inline;fill:none;stroke:#35A77C;stroke-width:1.65;stroke-miterlimit:10;}
	.st15{display:inline;fill:none;stroke:#35A77C;stroke-width:1.1;stroke-miterlimit:10;}
	.st16{fill:none;stroke:#35A77C;stroke-width:3.278;stroke-miterlimit:10;}
	.st17{fill:none;stroke:#35A77C;stroke-width:2.6634;stroke-miterlimit:10;}
	.st18{fill:none;stroke:#35A77C;stroke-width:2.0487;stroke-miterlimit:10;}
	.st19{fill:none;stroke:#35A77C;stroke-width:1.4341;stroke-miterlimit:10;}
	.st20{fill:none;stroke:#35A77C;stroke-width:0.8195;stroke-miterlimit:10;}
	.st21{fill:none;stroke:#35A77C;stroke-width:1.65;stroke-miterlimit:10;}
	.st22{fill:none;stroke:#35A77C;stroke-width:1.1;stroke-miterlimit:10;}
	.st23{fill:none;stroke:#35A77C;stroke-width:2.4585;stroke-miterlimit:10;}
	.st24{fill:none;stroke:#35A77C;stroke-width:1.639;stroke-miterlimit:10;}
	.st25{fill:#FFFFFF;}
</style>
<rect x="0" y="0.2" class="st1" width="114" height="114"/>
<g>
	<g>
		<polygon class="st9" points="81.1,95 4.8,95 30.9,17.7 109.2,17.7 		"/>
		<path class="st10" d="M35.5,26.2c0-0.6,22.6-1.2,23.3-1.1c1.2,0.3,38.9,0.2,39.8,0.1c0.7,0-8.8,27-9.3,27.6
			c-0.6,0.7-12.3,32.8-12.4,33.7c-0.1,1.2-34.7,1.9-35.8,1.6c-1.1-0.2-24.7-0.3-25.4-0.3c-0.6,0,5.1-18.3,5.3-18.7
			C21.5,68.3,35.4,27,35.5,26.2z"/>
		<path class="st11" d="M40,34.8c0.1-1.3,15.7-2.5,17.2-2.1c2.5,0.6,29,0.3,30.7,0.3c1.4,0-4.8,18.9-5.9,20.2
			c-1.1,1.4-9.3,23.4-9.5,25.1c-0.2,2.3-24.2,3.7-26.5,3.3c-2.3-0.5-18.1-0.6-19.6-0.6c-1.2-0.1,2.1-12.6,2.5-13.6
			C30,65.6,39.9,36.3,40,34.8z"/>
		<path class="st12" d="M44.6,43.3c0.1-1.9,8.9-3.7,11.1-3.2c3.7,0.9,19.1,0.5,21.7,0.4c2.1,0-0.9,10.9-2.4,12.7
			c-1.7,2.1-6.2,14-6.5,16.6c-0.4,3.5-13.8,5.6-17.2,4.9c-3.4-0.7-11.6-0.9-13.8-1c-1.9-0.1-1-7-0.2-8.4
			C38.6,62.8,44.4,45.6,44.6,43.3z"/>
		<path class="st13" d="M54.2,47.5c4.9,1.1,9.2,0.6,12.6,0.5c2.8-0.1,3.1,2.8,1,5.3c-2.3,2.7-3.2,4.6-3.6,8.1
			c-0.5,4.6-3.4,7.5-7.9,6.5c-4.6-1-5-1.1-8-1.3c-2.5-0.1-4-1.4-3-3.3c1.8-3.4,3.6-8.5,3.8-11.6C49.3,49.3,51.2,46.8,54.2,47.5z"/>
	</g>
</g>
</svg>
