<?xml version="1.0" encoding="utf-8"?>
<!-- Generator: Adobe Illustrator 19.1.0, SVG Export Plug-In . SVG Version: 6.00 Build 0)  -->
<svg version="1.1" id="Layer_1" xmlns="http://www.w3.org/2000/svg" xmlns:xlink="http://www.w3.org/1999/xlink" x="0px" y="0px"
	 viewBox="0 0 170 170" style="enable-background:new 0 0 170 170;" xml:space="preserve">
<style type="text/css">
	.st0{opacity:0;fill:#F0F2F3;}
	.st1{opacity:0;fill:#FFFFFF;}
	.st2{display:none;}
	.st3{display:inline;fill:none;stroke:#35A77C;stroke-width:2.2;stroke-miterlimit:10;}
	.st4{display:inline;fill:none;stroke:#35A77C;stroke-width:1.7875;stroke-miterlimit:10;}
	.st5{display:inline;fill:none;stroke:#35A77C;stroke-width:1.375;stroke-miterlimit:10;}
	.st6{display:inline;fill:none;stroke:#35A77C;stroke-width:0.9625;stroke-miterlimit:10;}
	.st7{display:inline;fill:none;stroke:#35A77C;stroke-width:0.55;stroke-miterlimit:10;}
	.st8{display:inline;}
	.st9{fill:none;stroke:#35A77C;stroke-width:2.2;stroke-miterlimit:10;}
	.st10{fill:none;stroke:#35A77C;stroke-width:1.7875;stroke-miterlimit:10;}
	.st11{fill:none;stroke:#35A77C;stroke-width:1.375;stroke-miterlimit:10;}
	.st12{fill:none;stroke:#35A77C;stroke-width:0.9625;stroke-miterlimit:10;}
	.st13{fill:none;stroke:#35A77C;stroke-width:0.55;stroke-miterlimit:10;}
	.st14{display:inline;fill:none;stroke:#35A77C;stroke-width:1.65;stroke-miterlimit:10;}
	.st15{display:inline;fill:none;stroke:#35A77C;stroke-width:1.1;stroke-miterlimit:10;}
	.st16{fill:none;stroke:#35A77C;stroke-width:3.278;stroke-miterlimit:10;}
	.st17{fill:none;stroke:#35A77C;stroke-width:2.6634;stroke-miterlimit:10;}
	.st18{fill:none;stroke:#35A77C;stroke-width:2.0487;stroke-miterlimit:10;}
	.st19{fill:none;stroke:#35A77C;stroke-width:1.4341;stroke-miterlimit:10;}
	.st20{fill:none;stroke:#35A77C;stroke-width:0.8195;stroke-miterlimit:10;}
	.st21{fill:none;stroke:#35A77C;stroke-width:1.65;stroke-miterlimit:10;}
	.st22{fill:none;stroke:#35A77C;stroke-width:1.1;stroke-miterlimit:10;}
	.st23{fill:none;stroke:#35A77C;stroke-width:2.4585;stroke-miterlimit:10;}
	.st24{fill:none;stroke:#35A77C;stroke-width:1.639;stroke-miterlimit:10;}
	.st25{fill:#FFFFFF;}
</style>
<rect class="st0" width="170" height="170"/>
<g>
	<polygon class="st16" points="150.7,140.1 85,140.1 19.3,140.1 52.1,82.5 85,25 117.9,82.5 	"/>
	<path class="st23" d="M83.8,45.6c0.3-0.9,9.1,12.5,9.2,13.4v0c0.2,1.5,15.2,28,16.2,29.1l17.8,29.3c0.6,0.7,7.1,14.3,6.2,14
		l-14.1-0.4c-1.1-0.4-33.1-0.4-34.3-0.2l-48.2,1c-0.9,0.2,5.7-13.4,6.3-14l0,0c1.2-1.1,16.8-28.3,17.4-29.8L83.8,45.6z"/>
	<path class="st24" d="M82.7,66.2c0.6-1.7,6.9,5.1,7.2,6.9v0c0.5,2.9,8.9,18.3,10.9,20.5l13.6,20c1.2,1.4,3.4,9.7,1.7,9.1l-8.9-0.9
		c-2.1-0.8-19.9-0.9-22.1-0.4l-30.7,2c-1.8,0.4,0.7-8,2-9.2l0,0c2.3-2.2,11.5-17.8,12.6-20.8L82.7,66.2z"/>
	<path class="st20" d="M98.5,114.1l-3.7-1.3c-3.2-1.1-6.7-1.3-10-0.6l-13.2,3c-2.6,0.6-4.4-2.7-2.4-4.5l0,0
		c3.5-3.2,6.2-7.3,7.8-11.8l4.4-12.1c0.9-2.6,4.7-2.2,5.1,0.5v0c0.7,4.4,2.6,8.5,5.5,11.9l9.3,10.7
		C103.2,111.9,101.1,115,98.5,114.1z"/>
</g>
</svg>
