<?xml version="1.0" encoding="utf-8"?>
<!-- Generator: Adobe Illustrator 19.1.0, SVG Export Plug-In . SVG Version: 6.00 Build 0)  -->
<svg version="1.1" id="Layer_1" xmlns="http://www.w3.org/2000/svg" xmlns:xlink="http://www.w3.org/1999/xlink" x="0px" y="0px"
	 viewBox="0 0 170 170" style="enable-background:new 0 0 170 170;" xml:space="preserve">
<style type="text/css">
	.st0{opacity:0;fill:#F0F2F3;}
	.st1{opacity:0;fill:#FFFFFF;}
	.st2{display:none;}
	.st3{display:inline;fill:none;stroke:#35A77C;stroke-width:2.2;stroke-miterlimit:10;}
	.st4{display:inline;fill:none;stroke:#35A77C;stroke-width:1.7875;stroke-miterlimit:10;}
	.st5{display:inline;fill:none;stroke:#35A77C;stroke-width:1.375;stroke-miterlimit:10;}
	.st6{display:inline;fill:none;stroke:#35A77C;stroke-width:0.9625;stroke-miterlimit:10;}
	.st7{display:inline;fill:none;stroke:#35A77C;stroke-width:0.55;stroke-miterlimit:10;}
	.st8{display:inline;}
	.st9{fill:none;stroke:#35A77C;stroke-width:2.2;stroke-miterlimit:10;}
	.st10{fill:none;stroke:#35A77C;stroke-width:1.7875;stroke-miterlimit:10;}
	.st11{fill:none;stroke:#35A77C;stroke-width:1.375;stroke-miterlimit:10;}
	.st12{fill:none;stroke:#35A77C;stroke-width:0.9625;stroke-miterlimit:10;}
	.st13{fill:none;stroke:#35A77C;stroke-width:0.55;stroke-miterlimit:10;}
	.st14{display:inline;fill:none;stroke:#35A77C;stroke-width:1.65;stroke-miterlimit:10;}
	.st15{display:inline;fill:none;stroke:#35A77C;stroke-width:1.1;stroke-miterlimit:10;}
	.st16{fill:none;stroke:#35A77C;stroke-width:3.278;stroke-miterlimit:10;}
	.st17{fill:none;stroke:#35A77C;stroke-width:2.6634;stroke-miterlimit:10;}
	.st18{fill:none;stroke:#35A77C;stroke-width:2.0487;stroke-miterlimit:10;}
	.st19{fill:none;stroke:#35A77C;stroke-width:1.4341;stroke-miterlimit:10;}
	.st20{fill:none;stroke:#35A77C;stroke-width:0.8195;stroke-miterlimit:10;}
	.st21{fill:none;stroke:#35A77C;stroke-width:1.65;stroke-miterlimit:10;}
	.st22{fill:none;stroke:#35A77C;stroke-width:1.1;stroke-miterlimit:10;}
	.st23{fill:none;stroke:#35A77C;stroke-width:2.4585;stroke-miterlimit:10;}
	.st24{fill:none;stroke:#35A77C;stroke-width:1.639;stroke-miterlimit:10;}
	.st25{fill:#FFFFFF;}
</style>
<rect x="0" class="st0" width="170" height="170"/>
<g>
	<g>
		<polygon class="st16" points="142.6,140.1 85,140.1 27.4,140.1 27.4,82.5 27.4,25 85,25 142.6,25 142.6,82.5 		"/>
		<path class="st17" d="M86.3,36c0.3,0.1,11.6,0,11.9-0.1h0c1-0.6,34.5,0.4,34.2,1.5l-0.7,45.5c-0.1,0.3-0.1,7.1,0,7.4l0.6,16.1
			c0.4,1-0.4,24.1-1.4,23.9L85.7,130c-0.7-0.1-29.2-0.1-29.9,0l-16.6,0.2c-1,0.2-1.5-24.3-1.1-25.3l0.7-22.4
			c0.1-0.3,0.1-13.2,0-13.5l0,0c-0.5-0.9-0.1-32.7,0.6-33.2c0.5-0.4,21-0.5,21.6-0.4L86.3,36z"/>
		<path class="st18" d="M87.6,47c0.7,0.2,8.6,0.1,9.2-0.2v0c2.1-1.1,26,0.8,25.3,3l-1.4,33.5c-0.2,0.6-0.1,5.5,0.1,6.1l1.3,12.8
			c0.8,1.9-0.9,18.7-2.9,18.3l-32.8-0.7c-1.4-0.3-21.4-0.2-22.8,0.1l-12.6,0.5c-2,0.4-2.9-17.8-2.2-19.8l1.3-18.1
			c0.3-0.7,0.2-9.8-0.1-10.4l0,0c-0.9-1.9-0.2-24.4,1.2-25.5c0.9-0.7,15.4-1.1,16.8-0.7L87.6,47z"/>
		<path class="st19" d="M88.8,58c1,0.3,5.7,0.1,6.6-0.4l0,0c3.1-1.7,17.4,1.2,16.5,4.5l-2.1,21.5c-0.2,0.8-0.2,3.9,0.1,4.7l1.9,9.6
			c1.2,2.9-1.3,13.3-4.3,12.7L87,109.7c-2.1-0.4-13.6-0.3-15.7,0.1l-8.7,0.7c-3.1,0.6-4.4-11.3-3.3-14.2l2-13.7
			c0.4-1,0.4-6.3-0.1-7.3l0,0c-1.4-2.8-0.4-16.1,1.8-17.8c1.4-1.1,9.9-1.6,11.9-1.1L88.8,58z"/>
		<path class="st20" d="M95.8,101l-8.1-1.4c-2.8-0.5-5.8-0.5-8.6,0.1l-4.7,1c-4.1,0.9-5.9-4.8-4.3-8.7l2.7-9.4
			c0.5-1.4,0.5-2.9-0.2-4.2l0,0c-3-6.3,2.7-13.3,9.5-11.5l8.1,2.1c1.3,0.3,2.7,0.2,3.9-0.5l0,0c4.1-2.3,8.9,1.5,7.6,6.1l-2.7,9.5
			c-0.3,1.1-0.3,2.3,0.2,3.4l2.5,6.3C103.1,97.7,99.9,101.7,95.8,101z"/>
	</g>
</g>
</svg>
