<?xml version="1.0" encoding="utf-8"?>
<!-- Generator: Adobe Illustrator 19.1.0, SVG Export Plug-In . SVG Version: 6.00 Build 0)  -->
<svg version="1.1" id="Layer_1" xmlns="http://www.w3.org/2000/svg" xmlns:xlink="http://www.w3.org/1999/xlink" x="0px" y="0px"
	 viewBox="0 0 170 170" style="enable-background:new 0 0 170 170;" xml:space="preserve">
<style type="text/css">
	.st0{opacity:0;fill:#F0F2F3;}
	.st1{opacity:0;fill:#FFFFFF;}
	.st2{display:none;}
	.st3{display:inline;fill:none;stroke:#35A77C;stroke-width:2.2;stroke-miterlimit:10;}
	.st4{display:inline;fill:none;stroke:#35A77C;stroke-width:1.7875;stroke-miterlimit:10;}
	.st5{display:inline;fill:none;stroke:#35A77C;stroke-width:1.375;stroke-miterlimit:10;}
	.st6{display:inline;fill:none;stroke:#35A77C;stroke-width:0.9625;stroke-miterlimit:10;}
	.st7{display:inline;fill:none;stroke:#35A77C;stroke-width:0.55;stroke-miterlimit:10;}
	.st8{display:inline;}
	.st9{fill:none;stroke:#35A77C;stroke-width:2.2;stroke-miterlimit:10;}
	.st10{fill:none;stroke:#35A77C;stroke-width:1.7875;stroke-miterlimit:10;}
	.st11{fill:none;stroke:#35A77C;stroke-width:1.375;stroke-miterlimit:10;}
	.st12{fill:none;stroke:#35A77C;stroke-width:0.9625;stroke-miterlimit:10;}
	.st13{fill:none;stroke:#35A77C;stroke-width:0.55;stroke-miterlimit:10;}
	.st14{display:inline;fill:none;stroke:#35A77C;stroke-width:1.65;stroke-miterlimit:10;}
	.st15{display:inline;fill:none;stroke:#35A77C;stroke-width:1.1;stroke-miterlimit:10;}
	.st16{fill:none;stroke:#35A77C;stroke-width:3.278;stroke-miterlimit:10;}
	.st17{fill:none;stroke:#35A77C;stroke-width:2.6634;stroke-miterlimit:10;}
	.st18{fill:none;stroke:#35A77C;stroke-width:2.0487;stroke-miterlimit:10;}
	.st19{fill:none;stroke:#35A77C;stroke-width:1.4341;stroke-miterlimit:10;}
	.st20{fill:none;stroke:#35A77C;stroke-width:0.8195;stroke-miterlimit:10;}
	.st21{fill:none;stroke:#35A77C;stroke-width:1.65;stroke-miterlimit:10;}
	.st22{fill:none;stroke:#35A77C;stroke-width:1.1;stroke-miterlimit:10;}
	.st23{fill:none;stroke:#35A77C;stroke-width:2.4585;stroke-miterlimit:10;}
	.st24{fill:none;stroke:#35A77C;stroke-width:1.639;stroke-miterlimit:10;}
	.st25{fill:#FFFFFF;}
</style>
<rect x="0" y="0" class="st0" width="170" height="170"/>
<g>
	<g>
		<polygon class="st16" points="120.9,140.1 7.2,140.1 46.2,25 162.8,25 		"/>
		<path class="st17" d="M52.9,37.7c0.1-1,33.7-1.9,34.8-1.6c1.8,0.4,58,0.2,59.2,0.2c1,0-12.8,39.4-13.6,40.3
			c-0.8,1-18.7,49.8-18.8,51c-0.2,1.7-51.6,2.8-53.3,2.4c-1.7-0.4-36.7-0.4-37.8-0.5c-0.9,0,7.5-27.2,7.9-27.9
			C32,100.4,52.9,38.8,52.9,37.7z"/>
		<path class="st18" d="M59.7,50.4c0.1-1.9,23.5-3.7,25.7-3.2c3.7,0.9,43.2,0.5,45.8,0.4c2.1,0-7,27.6-8.5,29.5
			c-1.7,2-14,35.5-14.3,38c-0.4,3.4-36.1,5.6-39.5,4.8c-3.4-0.7-27-0.8-29.2-1c-1.9-0.1,3.1-18.8,3.8-20.2
			C44.8,96.3,59.6,52.7,59.7,50.4z"/>
		<path class="st19" d="M66.5,63.1c0.2-2.9,13.3-5.6,16.6-4.8c5.5,1.3,28.5,0.7,32.3,0.6c3.1-0.1-1.2,15.9-3.5,18.7
			c-2.5,3.1-9.4,21.2-9.8,25c-0.5,5.2-20.6,8.3-25.6,7.3c-5.1-1.1-17.2-1.3-20.6-1.4c-2.8-0.1-1.4-10.5-0.3-12.5
			C57.6,92.2,66.3,66.5,66.5,63.1z"/>
		<path class="st20" d="M80.8,69.4c7.4,1.7,13.7,0.9,18.8,0.8c4.1-0.1,4.6,4.2,1.5,7.9c-3.4,4.1-4.8,6.9-5.3,12
			c-0.7,6.9-5.1,11.1-11.8,9.7c-6.8-1.5-7.5-1.7-11.9-1.9c-3.7-0.2-5.9-2.1-4.4-4.8c2.7-5,5.3-12.7,5.6-17.2
			C73.5,72,76.3,68.4,80.8,69.4z"/>
	</g>
</g>
</svg>
